<svg xmlns="http://www.w3.org/2000/svg" viewBox="0 0 32 32" width="32" height="32">
  <defs>
    <linearGradient id="gradient" x1="0%" y1="0%" x2="100%" y2="100%">
      <stop offset="0%" style="stop-color:#3b82f6;stop-opacity:1" />
      <stop offset="50%" style="stop-color:#2563eb;stop-opacity:1" />
      <stop offset="100%" style="stop-color:#1d4ed8;stop-opacity:1" />
    </linearGradient>
    <filter id="shadow" x="-20%" y="-20%" width="140%" height="140%">
      <feDropShadow dx="0" dy="2" stdDeviation="2" flood-color="#000000" flood-opacity="0.3"/>
    </filter>
  </defs>
  
  <!-- Background circle with gradient -->
  <circle cx="16" cy="16" r="15" fill="url(#gradient)" filter="url(#shadow)"/>
  
  <!-- Sparkles icon in white -->
  <g fill="white" stroke="white" stroke-width="1.2" stroke-linecap="round" stroke-linejoin="round">
    <!-- Main sparkle -->
    <path d="M16 9a1 1 0 0 1 1.5 0l1.5 3.5a2 2 0 0 0 1.5 1.5l3.5 1.5a1 1 0 0 1 0 1.5l-3.5 1.5a2 2 0 0 0-1.5 1.5l-1.5 3.5a1 1 0 0 1-1.5 0l-1.5-3.5a2 2 0 0 0-1.5-1.5l-3.5-1.5a1 1 0 0 1 0-1.5l3.5-1.5a2 2 0 0 0 1.5-1.5z"/>
    
    <!-- Small sparkles -->
    <path d="M25 7v1.5"/>
    <path d="M26.5 8.5h-1.5"/>
    <circle cx="7" cy="25" r="0.8"/>
  </g>
</svg> 